<?xml version="1.0" standalone="no"?>
<!DOCTYPE svg PUBLIC "-//W3C//DTD SVG 20010904//EN"
 "http://www.w3.org/TR/2001/REC-SVG-20010904/DTD/svg10.dtd">
<svg version="1.0" xmlns="http://www.w3.org/2000/svg"
 width="2560.000000pt" height="1348.000000pt" viewBox="0 0 2560.000000 1348.000000"
 preserveAspectRatio="xMidYMid meet">

<g transform="translate(0.000000,1348.000000) scale(0.100000,-0.100000)"
fill="#000000" stroke="none">
<path d="M0 9848 l0 -3631 7682 6 c4225 4 9985 7 12800 7 l5118 0 0 515 0 515
-7680 0 -7680 0 0 520 0 520 7680 0 7680 0 0 515 0 515 -7680 0 -7680 0 0 520
0 520 7680 0 7680 0 0 520 0 520 -7680 0 -7680 0 0 520 0 520 7680 0 7680 0 0
515 0 515 -12800 0 -12800 0 0 -3632z m905 3162 l41 -125 147 -5 148 -5 -116
-83 c-63 -46 -115 -89 -115 -95 0 -7 18 -67 41 -135 23 -68 39 -126 36 -128
-3 -3 -54 31 -115 75 -60 45 -114 81 -118 81 -5 0 -61 -38 -124 -84 -63 -46
-116 -83 -117 -82 -2 1 14 54 35 117 62 183 69 154 -64 250 l-117 84 146 3
146 3 41 127 c22 70 43 134 46 142 8 19 6 23 59 -140z m1705 12 l45 -137 148
-3 149 -3 -119 -86 c-65 -47 -119 -86 -120 -87 -1 -1 18 -62 43 -136 24 -74
44 -138 44 -142 0 -4 -53 31 -117 78 -64 46 -122 83 -129 80 -7 -3 -63 -41
-124 -86 -60 -44 -110 -77 -110 -73 0 5 20 69 45 143 24 74 41 138 37 141 -4
3 -56 41 -117 85 l-110 79 145 5 145 5 45 137 c25 76 47 138 50 138 3 0 25
-62 50 -138z m1709 -9 l41 -132 146 -3 146 -3 -116 -84 c-133 -97 -125 -68
-64 -250 21 -63 37 -116 35 -117 -1 -1 -54 36 -117 82 -63 46 -118 84 -123 84
-4 0 -56 -35 -115 -78 -59 -43 -112 -81 -119 -85 -6 -4 8 52 33 125 24 73 44
138 44 144 0 7 -53 51 -117 98 l-117 85 149 3 149 3 45 138 c24 76 47 135 51
130 4 -4 26 -68 49 -140z m1706 -3 l41 -125 147 -5 148 -5 -116 -83 c-63 -46
-115 -89 -115 -95 0 -7 18 -67 41 -135 23 -68 39 -126 36 -128 -3 -3 -54 31
-115 75 -60 45 -114 81 -118 81 -5 0 -61 -38 -124 -84 -63 -46 -116 -83 -117
-82 -2 1 14 54 35 117 62 183 69 154 -64 250 l-117 84 146 3 146 3 41 127 c22
70 43 134 46 142 8 19 6 23 59 -140z m1705 12 l45 -137 148 -3 149 -3 -119
-86 c-65 -47 -119 -86 -120 -87 -1 -1 18 -62 43 -136 24 -74 44 -138 44 -142
0 -4 -53 31 -117 78 -64 46 -122 83 -129 80 -7 -3 -63 -41 -124 -86 -60 -44
-110 -77 -110 -73 0 5 20 69 45 143 24 74 41 138 37 141 -4 3 -56 41 -117 85
l-110 79 145 5 145 5 45 137 c25 76 47 138 50 138 3 0 25 -62 50 -138z m1709
-9 l41 -132 146 -3 146 -3 -116 -84 c-133 -97 -125 -68 -64 -250 21 -63 37
-116 35 -117 -1 -1 -54 36 -117 82 -63 46 -118 84 -123 84 -4 0 -56 -35 -115
-78 -59 -43 -112 -81 -119 -85 -6 -4 8 52 33 125 24 73 44 138 44 144 0 7 -53
51 -117 98 l-117 85 149 3 149 3 45 138 c24 76 47 135 51 130 4 -4 26 -68 49
-140z m-7684 -715 l44 -133 151 -5 151 -5 -111 -80 c-61 -43 -115 -84 -120
-90 -5 -7 8 -63 34 -145 24 -74 42 -136 41 -138 -2 -2 -56 35 -121 82 l-117
85 -51 -37 c-28 -20 -80 -58 -116 -84 -35 -26 -66 -45 -68 -43 -3 2 15 65 39
139 23 75 40 138 38 140 -2 2 -56 41 -119 87 l-115 84 150 3 150 3 44 139 c25
77 46 138 49 136 2 -2 23 -64 47 -138z m1898 -138 c86 0 146 -4 143 -9 -5 -7
-174 -133 -220 -163 -6 -4 6 -55 33 -143 24 -75 42 -138 40 -140 -2 -2 -38 22
-79 52 -41 30 -94 67 -116 83 l-41 29 -118 -85 c-64 -47 -118 -84 -120 -82 -1
2 17 64 41 138 26 82 39 138 34 145 -5 6 -59 47 -120 90 l-111 80 150 3 150 3
47 142 48 142 45 -142 46 -142 148 -1z m3222 138 l44 -133 151 -5 151 -5 -111
-80 c-61 -43 -115 -84 -120 -90 -5 -7 8 -63 34 -145 24 -74 42 -136 41 -138
-2 -2 -56 35 -121 82 l-117 85 -51 -37 c-28 -20 -80 -58 -116 -84 -35 -26 -66
-45 -68 -43 -3 2 15 65 39 139 23 75 40 138 38 140 -2 2 -56 41 -119 87 l-115
84 150 3 150 3 44 139 c25 77 46 138 49 136 2 -2 23 -64 47 -138z m1898 -138
c86 0 146 -4 143 -9 -5 -7 -174 -133 -220 -163 -6 -4 6 -55 33 -143 24 -75 42
-138 40 -140 -2 -2 -38 22 -79 52 -41 30 -94 67 -116 83 l-41 29 -118 -85
c-64 -47 -118 -84 -120 -82 -1 2 17 64 41 138 26 82 39 138 34 145 -5 6 -59
47 -120 90 l-111 80 150 3 150 3 47 142 48 142 45 -142 46 -142 148 -1z
m-3603 135 l44 -135 150 -2 150 -3 -121 -87 -121 -88 44 -136 c25 -75 43 -138
41 -140 -2 -2 -56 34 -120 81 l-117 85 -116 -85 c-64 -47 -119 -84 -121 -82
-2 2 16 66 41 141 l44 136 -120 88 -120 87 149 3 149 2 44 135 c24 74 47 135
50 135 3 0 26 -61 50 -135z m-4265 -735 l41 -125 148 -5 148 -5 -116 -83 c-64
-46 -116 -89 -116 -96 0 -6 20 -71 44 -144 25 -73 39 -129 33 -125 -7 4 -61
42 -120 86 -60 43 -114 76 -120 74 -7 -3 -61 -41 -122 -85 -60 -45 -111 -79
-112 -78 -2 1 17 63 42 136 25 74 45 137 45 140 0 4 -53 44 -117 91 l-117 84
146 3 147 3 41 127 c22 70 43 134 47 142 7 18 3 26 58 -140z m1704 10 l44
-139 148 -3 147 -3 -111 -80 c-60 -44 -114 -83 -119 -86 -4 -3 12 -65 37 -139
25 -74 45 -138 45 -142 0 -5 -50 28 -110 72 -61 45 -116 83 -123 86 -7 2 -64
-34 -127 -80 -63 -46 -116 -81 -118 -77 -1 3 18 67 43 140 25 74 44 135 42
136 -1 2 -55 41 -121 89 l-118 86 149 0 150 0 44 140 c24 77 46 140 49 140 3
0 25 -63 49 -140z m1708 -4 l44 -135 147 -3 146 -3 -117 -84 c-64 -47 -117
-87 -117 -91 0 -3 20 -66 45 -140 25 -73 44 -135 42 -136 -1 -1 -52 33 -112
78 -61 44 -115 82 -122 85 -6 2 -53 -27 -105 -64 -51 -38 -105 -77 -120 -87
l-27 -18 44 133 c25 73 45 139 45 145 0 7 -52 50 -115 96 l-116 83 148 5 147
5 45 138 c24 75 46 135 49 132 2 -2 24 -65 49 -139z m1708 -6 l41 -125 148 -5
148 -5 -116 -83 c-64 -46 -116 -89 -116 -96 0 -6 20 -71 44 -144 25 -73 39
-129 33 -125 -7 4 -61 42 -120 86 -60 43 -114 76 -120 74 -7 -3 -61 -41 -122
-85 -60 -45 -111 -79 -112 -78 -2 1 17 63 42 136 25 74 45 137 45 140 0 4 -53
44 -117 91 l-117 84 146 3 147 3 41 127 c22 70 43 134 47 142 7 18 3 26 58
-140z m1704 10 l44 -139 148 -3 147 -3 -111 -80 c-60 -44 -114 -83 -119 -86
-4 -3 12 -65 37 -139 25 -74 45 -138 45 -142 0 -5 -50 28 -110 72 -61 45 -116
83 -123 86 -7 2 -64 -34 -127 -80 -63 -46 -116 -81 -118 -77 -1 3 18 67 43
140 25 74 44 135 42 136 -1 2 -55 41 -121 89 l-118 86 149 0 150 0 44 140 c24
77 46 140 49 140 3 0 25 -63 49 -140z m1708 -4 l44 -135 147 -3 146 -3 -117
-84 c-64 -47 -117 -87 -117 -91 0 -3 20 -66 45 -140 25 -73 44 -135 42 -136
-1 -1 -52 33 -112 78 -61 44 -115 82 -122 85 -6 2 -53 -27 -105 -64 -51 -38
-105 -77 -120 -87 l-27 -18 44 133 c25 73 45 139 45 145 0 7 -52 50 -115 96
l-116 83 148 5 147 5 45 138 c24 75 46 135 49 132 2 -2 24 -65 49 -139z
m-7682 -718 l43 -133 152 -5 152 -5 -116 -83 c-64 -46 -118 -87 -120 -91 -3
-4 15 -69 39 -144 23 -75 41 -137 38 -137 -3 0 -57 38 -121 85 -71 52 -120 81
-126 76 -65 -51 -221 -160 -224 -157 -2 3 16 66 39 141 27 87 39 139 33 143
-46 30 -215 156 -220 163 -3 5 57 9 143 9 l148 0 44 140 c24 77 46 138 49 136
2 -3 23 -65 47 -138z m1900 -140 l150 -3 -105 -78 c-58 -43 -112 -82 -119 -87
-13 -7 -8 -30 28 -145 23 -75 41 -138 39 -140 -2 -2 -55 34 -118 80 l-115 83
-30 -21 c-16 -12 -69 -49 -116 -84 -48 -35 -89 -63 -92 -63 -3 0 15 62 38 137
24 75 42 140 39 144 -2 4 -56 45 -120 91 l-116 83 152 5 152 5 46 140 45 140
46 -142 46 -142 150 -3z m3220 140 l43 -133 152 -5 152 -5 -116 -83 c-64 -46
-118 -87 -120 -91 -3 -4 15 -69 39 -144 23 -75 41 -137 38 -137 -3 0 -57 38
-121 85 -71 52 -120 81 -126 76 -65 -51 -221 -160 -224 -157 -2 3 16 66 39
141 27 87 39 139 33 143 -46 30 -215 156 -220 163 -3 5 57 9 143 9 l148 0 44
140 c24 77 46 138 49 136 2 -3 23 -65 47 -138z m1900 -140 l150 -3 -105 -78
c-58 -43 -112 -82 -119 -87 -13 -7 -8 -30 28 -145 23 -75 41 -138 39 -140 -2
-2 -55 34 -118 80 l-115 83 -30 -21 c-16 -12 -69 -49 -116 -84 -48 -35 -89
-63 -92 -63 -3 0 15 62 38 137 24 75 42 140 39 144 -2 4 -56 45 -120 91 l-116
83 152 5 152 5 46 140 45 140 46 -142 46 -142 150 -3z m-3606 137 l43 -134
151 -3 152 -3 -121 -88 -122 -87 44 -137 c24 -75 42 -138 40 -140 -1 -2 -53
33 -113 77 -61 44 -116 80 -123 80 -7 0 -62 -36 -122 -81 -61 -44 -112 -79
-114 -77 -2 2 16 66 40 141 l44 137 -121 88 -121 87 151 3 150 3 43 134 c24
74 47 135 50 135 4 0 26 -61 49 -135z m-4075 -865 l148 -5 -116 -84 c-64 -47
-116 -90 -116 -96 0 -6 20 -70 44 -143 25 -73 39 -129 33 -126 -7 4 -57 40
-112 79 -55 40 -105 75 -112 79 -7 4 -61 -29 -129 -79 -65 -46 -119 -83 -121
-82 -1 2 17 64 42 137 25 74 45 137 45 140 0 3 -53 44 -117 90 l-118 85 147 3
147 3 47 142 47 142 47 -140 47 -140 147 -5z m1517 133 l43 -133 150 0 150 0
-109 -81 c-61 -44 -116 -83 -123 -88 -9 -5 -1 -40 33 -141 25 -74 44 -138 43
-141 -2 -4 -55 31 -118 77 -63 46 -117 84 -120 84 -3 0 -57 -38 -120 -84 -63
-46 -116 -81 -118 -77 -1 3 18 67 43 141 25 73 41 136 37 139 -5 3 -59 42
-119 86 l-111 80 147 3 147 3 45 138 c24 77 47 136 50 133 4 -4 26 -67 50
-139z m1704 7 l47 -140 150 0 151 0 -119 -86 c-65 -47 -120 -89 -122 -92 -1
-4 18 -68 43 -141 25 -74 43 -136 42 -138 -2 -1 -56 36 -120 83 l-118 86 -27
-18 c-15 -10 -69 -48 -119 -86 -51 -37 -95 -68 -97 -68 -3 0 15 59 40 132 24
73 44 138 44 144 0 7 -52 50 -116 96 l-116 83 148 5 148 5 45 138 c25 75 46
137 47 137 1 0 23 -63 49 -140z m1899 -140 l148 -5 -116 -84 c-64 -47 -116
-90 -116 -96 0 -6 20 -70 44 -143 25 -73 39 -129 33 -126 -7 4 -57 40 -112 79
-55 40 -105 75 -112 79 -7 4 -61 -29 -129 -79 -65 -46 -119 -83 -121 -82 -1 2
17 64 42 137 25 74 45 137 45 140 0 3 -53 44 -117 90 l-118 85 147 3 147 3 47
142 47 142 47 -140 47 -140 147 -5z m1517 133 l43 -133 150 0 150 0 -109 -81
c-61 -44 -116 -83 -123 -88 -9 -5 -1 -40 33 -141 25 -74 44 -138 43 -141 -2
-4 -55 31 -118 77 -63 46 -117 84 -120 84 -3 0 -57 -38 -120 -84 -63 -46 -116
-81 -118 -77 -1 3 18 67 43 141 25 73 41 136 37 139 -5 3 -59 42 -119 86
l-111 80 147 3 147 3 45 138 c24 77 47 136 50 133 4 -4 26 -67 50 -139z m1704
7 l47 -140 150 0 151 0 -119 -86 c-65 -47 -120 -89 -122 -92 -1 -4 18 -68 43
-141 25 -74 43 -136 42 -138 -2 -1 -56 36 -120 83 l-118 86 -27 -18 c-15 -10
-69 -48 -119 -86 -51 -37 -95 -68 -97 -68 -3 0 15 59 40 132 24 73 44 138 44
144 0 7 -52 50 -116 96 l-116 83 148 5 148 5 45 138 c25 75 46 137 47 137 1 0
23 -63 49 -140z m-7681 -722 l43 -133 153 -5 154 -5 -122 -88 c-67 -49 -122
-89 -122 -90 0 -1 20 -64 44 -139 24 -76 41 -138 37 -138 -3 1 -57 38 -120 84
l-114 84 -115 -84 c-64 -46 -117 -82 -119 -80 -3 2 15 66 38 141 36 115 41
138 29 145 -8 5 -62 44 -120 87 l-105 78 150 3 151 2 43 140 c24 77 46 138 49
136 2 -3 23 -65 46 -138z m1898 -138 c81 0 148 -3 148 -7 -1 -5 -48 -42 -106
-83 -58 -41 -110 -80 -115 -87 -8 -8 2 -51 31 -144 23 -72 40 -133 38 -135 -2
-2 -56 34 -119 80 l-115 83 -114 -83 c-63 -46 -118 -84 -121 -84 -4 0 13 62
37 138 24 75 44 138 44 139 0 1 -54 41 -121 90 l-121 88 153 5 152 5 45 140
45 140 46 -142 45 -143 148 0z m3222 138 l43 -133 153 -5 154 -5 -122 -88
c-67 -49 -122 -89 -122 -90 0 -1 20 -64 44 -139 24 -76 41 -138 37 -138 -3 1
-57 38 -120 84 l-114 84 -115 -84 c-64 -46 -117 -82 -119 -80 -3 2 15 66 38
141 36 115 41 138 29 145 -8 5 -62 44 -120 87 l-105 78 150 3 151 2 43 140
c24 77 46 138 49 136 2 -3 23 -65 46 -138z m1898 -138 c81 0 148 -3 148 -7 -1
-5 -48 -42 -106 -83 -58 -41 -110 -80 -115 -87 -8 -8 2 -51 31 -144 23 -72 40
-133 38 -135 -2 -2 -56 34 -119 80 l-115 83 -114 -83 c-63 -46 -118 -84 -121
-84 -4 0 13 62 37 138 24 75 44 138 44 139 0 1 -54 41 -121 90 l-121 88 153 5
152 5 45 140 45 140 46 -142 45 -143 148 0z m-3603 135 l42 -134 152 -3 152
-3 -121 -88 -121 -89 43 -136 c24 -75 41 -138 40 -140 -2 -2 -53 33 -114 77
-60 45 -115 81 -121 81 -6 0 -61 -36 -122 -81 -61 -44 -112 -79 -114 -77 -2 2
15 65 39 140 l44 137 -122 88 -121 88 152 3 152 3 42 134 c23 74 45 135 49
135 4 0 26 -61 49 -135z m-4073 -865 l148 -5 -117 -84 c-64 -47 -117 -90 -117
-96 0 -6 20 -70 44 -143 25 -73 43 -132 40 -132 -2 0 -53 35 -112 78 -59 43
-112 81 -119 85 -7 5 -60 -28 -129 -78 -64 -47 -118 -84 -120 -82 -2 2 17 65
42 141 25 75 45 139 43 140 -2 2 -57 42 -123 90 l-118 86 150 0 150 0 48 143
47 142 47 -140 47 -140 149 -5z m3219 140 l46 -139 149 -3 148 -3 -119 -85
c-65 -47 -119 -87 -119 -90 0 -3 20 -66 45 -140 25 -73 43 -135 42 -137 -2 -1
-56 36 -121 82 -70 52 -122 83 -129 78 -7 -4 -60 -42 -119 -85 -59 -43 -110
-78 -112 -78 -3 0 15 59 40 132 24 73 44 137 44 143 0 6 -52 49 -116 96 l-116
84 148 5 148 5 45 138 c25 75 46 137 47 137 1 0 23 -63 49 -140z m1901 -140
l148 -5 -117 -84 c-64 -47 -117 -90 -117 -96 0 -6 20 -70 44 -143 25 -73 43
-132 40 -132 -2 0 -53 35 -112 78 -59 43 -112 81 -119 85 -7 5 -60 -28 -129
-78 -64 -47 -118 -84 -120 -82 -2 2 17 65 42 141 25 75 45 139 43 140 -2 2
-57 42 -123 90 l-118 86 150 0 150 0 48 143 47 142 47 -140 47 -140 149 -5z
m3219 140 l46 -139 149 -3 148 -3 -119 -85 c-65 -47 -119 -87 -119 -90 0 -3
20 -66 45 -140 25 -73 43 -135 42 -137 -2 -1 -56 36 -121 82 -70 52 -122 83
-129 78 -7 -4 -60 -42 -119 -85 -59 -43 -110 -78 -112 -78 -3 0 15 59 40 132
24 73 44 137 44 143 0 6 -52 49 -116 96 l-116 84 148 5 148 5 45 138 c25 75
46 137 47 137 1 0 23 -63 49 -140z m-6825 -5 l44 -135 151 -1 c132 0 148 -2
130 -14 -11 -8 -66 -48 -122 -89 l-102 -75 45 -133 c24 -73 43 -136 42 -139
-2 -4 -56 31 -120 78 l-117 85 -118 -86 c-65 -46 -119 -82 -121 -78 -1 4 18
67 42 140 l45 133 -102 75 c-56 41 -111 81 -122 89 -18 12 -2 14 130 14 l151
1 44 135 c24 74 47 135 50 135 3 0 26 -61 50 -135z m5120 0 l44 -135 151 -1
c132 0 148 -2 130 -14 -11 -8 -66 -48 -122 -89 l-102 -75 45 -133 c24 -73 43
-136 42 -139 -2 -4 -56 31 -120 78 l-117 85 -118 -86 c-65 -46 -119 -82 -121
-78 -1 4 18 67 42 140 l45 133 -102 75 c-56 41 -111 81 -122 89 -18 12 -2 14
130 14 l151 1 44 135 c24 74 47 135 50 135 3 0 26 -61 50 -135z m-5974 -723
l40 -127 147 -3 c81 -1 147 -6 147 -10 0 -5 -52 -46 -115 -91 -99 -72 -115
-86 -109 -105 12 -40 77 -241 82 -255 3 -7 -45 23 -107 68 -61 45 -118 84
-126 87 -8 4 -62 -29 -126 -75 -62 -45 -114 -79 -116 -77 -2 2 15 63 37 135
30 94 39 135 32 144 -6 7 -58 46 -116 87 -58 41 -105 78 -106 83 0 4 67 7 148
7 l148 0 43 136 c23 75 45 133 49 130 4 -4 25 -64 48 -134z m1705 3 l43 -135
148 0 c81 0 148 -3 148 -7 0 -5 -48 -42 -106 -83 -58 -41 -110 -81 -116 -87
-7 -9 2 -50 32 -144 22 -72 39 -133 37 -135 -2 -2 -54 32 -114 76 -61 44 -115
80 -120 80 -5 0 -60 -38 -123 -84 -63 -46 -116 -83 -117 -82 -1 1 18 64 43
141 24 77 44 140 44 142 0 1 -52 39 -115 85 -63 45 -115 86 -115 90 0 4 66 9
147 10 l147 3 37 117 c42 136 47 148 53 148 3 0 24 -61 47 -135z m1708 0 l42
-135 150 0 c87 0 148 -4 145 -9 -3 -5 -57 -46 -120 -91 l-114 -82 35 -111 c19
-61 39 -122 44 -135 5 -14 8 -27 5 -29 -2 -3 -54 32 -115 76 -61 45 -115 81
-121 81 -5 0 -60 -37 -120 -81 -61 -45 -113 -79 -116 -77 -2 3 0 16 5 30 5 13
25 74 44 135 l35 111 -114 82 c-63 45 -117 86 -120 91 -3 5 58 9 145 9 l150 0
42 135 c24 74 45 135 49 135 4 0 25 -61 49 -135z m1707 -3 l40 -127 147 -3
c81 -1 147 -6 147 -10 0 -5 -52 -46 -115 -91 -99 -72 -115 -86 -109 -105 12
-40 77 -241 82 -255 3 -7 -45 23 -107 68 -61 45 -118 84 -126 87 -8 4 -62 -29
-126 -75 -62 -45 -114 -79 -116 -77 -2 2 15 63 37 135 30 94 39 135 32 144 -6
7 -58 46 -116 87 -58 41 -105 78 -106 83 0 4 67 7 148 7 l148 0 43 136 c23 75
45 133 49 130 4 -4 25 -64 48 -134z m1705 3 l43 -135 148 0 c81 0 148 -3 148
-7 0 -5 -48 -42 -106 -83 -58 -41 -110 -81 -116 -87 -7 -9 2 -50 32 -144 22
-72 39 -133 37 -135 -2 -2 -54 32 -114 76 -61 44 -115 80 -120 80 -5 0 -60
-38 -123 -84 -63 -46 -116 -83 -117 -82 -1 1 18 64 43 141 24 77 44 140 44
142 0 1 -52 39 -115 85 -63 45 -115 86 -115 90 0 4 66 9 147 10 l147 3 37 117
c42 136 47 148 53 148 3 0 24 -61 47 -135z m-7485 -865 l149 -5 -117 -85 c-65
-46 -118 -89 -118 -95 0 -6 18 -65 40 -130 22 -66 39 -125 38 -132 -2 -6 -54
27 -117 73 -133 97 -100 99 -259 -19 -52 -37 -95 -67 -97 -65 -2 2 16 64 41
138 24 74 44 137 44 140 0 3 -54 43 -119 90 l-119 85 148 3 149 3 47 142 47
142 47 -140 47 -140 149 -5z m3219 140 l47 -140 151 0 151 0 -109 -81 c-61
-44 -116 -84 -124 -88 -11 -7 -6 -32 29 -137 23 -71 44 -135 46 -143 5 -17
-16 -3 -144 91 -88 65 -95 68 -115 55 -12 -8 -65 -47 -117 -85 -52 -39 -96
-65 -98 -59 -1 7 16 66 38 132 22 65 40 124 40 130 0 6 -53 49 -117 96 l-117
84 149 5 149 5 45 138 c25 75 46 137 47 137 1 0 23 -63 49 -140z m1901 -140
l149 -5 -117 -85 c-65 -46 -118 -89 -118 -95 0 -6 18 -65 40 -130 22 -66 39
-125 38 -132 -2 -6 -54 27 -117 73 -133 97 -100 99 -259 -19 -52 -37 -95 -67
-97 -65 -2 2 16 64 41 138 24 74 44 137 44 140 0 3 -54 43 -119 90 l-119 85
148 3 149 3 47 142 47 142 47 -140 47 -140 149 -5z m3219 140 l47 -140 151 0
151 0 -109 -81 c-61 -44 -116 -84 -124 -88 -11 -7 -6 -32 29 -137 23 -71 44
-135 46 -143 5 -17 -16 -3 -144 91 -88 65 -95 68 -115 55 -12 -8 -65 -47 -117
-85 -52 -39 -96 -65 -98 -59 -1 7 16 66 38 132 22 65 40 124 40 130 0 6 -53
49 -117 96 l-117 84 149 5 149 5 45 138 c25 75 46 137 47 137 1 0 23 -63 49
-140z m-6825 -5 l44 -135 149 -2 149 -3 -48 -35 c-27 -19 -81 -58 -121 -87
l-71 -52 45 -137 c24 -75 43 -138 41 -139 -2 -2 -56 35 -121 81 l-117 85 -117
-85 c-65 -48 -119 -83 -120 -79 -2 5 17 68 41 141 l45 132 -72 53 c-40 29 -94
68 -121 87 l-48 35 149 3 149 2 44 135 c24 74 47 135 50 135 3 0 26 -61 50
-135z m5120 0 l44 -135 149 -2 149 -3 -48 -35 c-27 -19 -81 -58 -121 -87 l-71
-52 45 -137 c24 -75 43 -138 41 -139 -2 -2 -56 35 -121 81 l-117 85 -117 -85
c-65 -48 -119 -83 -120 -79 -2 5 17 68 41 141 l45 132 -72 53 c-40 29 -94 68
-121 87 l-48 35 149 3 149 2 44 135 c24 74 47 135 50 135 3 0 26 -61 50 -135z"/>
<path d="M0 4670 l0 -520 12800 0 12800 0 0 520 0 520 -12800 0 -12800 0 0
-520z"/>
<path d="M0 2595 l0 -515 12800 0 12800 0 0 515 0 515 -12800 0 -12800 0 0
-515z"/>
<path d="M0 525 l0 -515 12800 0 12800 0 0 515 0 515 -12800 0 -12800 0 0
-515z"/>
</g>
</svg>
