<svg xmlns="http://www.w3.org/2000/svg" viewBox="0 0 24 24" fill="currentColor">
  <path d="M10.325 4.317a1.75 1.75 0 0 1 3.35 0l.144.576a1.75 1.75 0 0 0 2.133 1.26l.58-.145a1.75 1.75 0 0 1 2.073 2.073l-.145.58a1.75 1.75 0 0 0 1.26 2.133l.576.144a1.75 1.75 0 0 1 0 3.35l-.576.144a1.75 1.75 0 0 0-1.26 2.133l.145.58a1.75 1.75 0 0 1-2.073 2.073l-.58-.145a1.75 1.75 0 0 0-2.133 1.26l-.144.576a1.75 1.75 0 0 1-3.35 0l-.144-.576a1.75 1.75 0 0 0-2.133-1.26l-.58.145a1.75 1.75 0 0 1-2.073-2.073l.145-.58a1.75 1.75 0 0 0-1.26-2.133l-.576-.144a1.75 1.75 0 0 1 0-3.35l.576-.144a1.75 1.75 0 0 0 1.26-2.133l-.145-.58a1.75 1.75 0 0 1 2.073-2.073l.58.145a1.75 1.75 0 0 0 2.133-1.26l.144-.576ZM12 9a3 3 0 1 0 0 6 3 3 0 0 0 0-6Z"/>
</svg>

