<?xml version="1.0" standalone="no"?>
<!DOCTYPE svg PUBLIC "-//W3C//DTD SVG 20010904//EN"
 "http://www.w3.org/TR/2001/REC-SVG-20010904/DTD/svg10.dtd">
<svg version="1.0" xmlns="http://www.w3.org/2000/svg"
 width="1280.000000pt" height="1206.000000pt" viewBox="0 0 1280.000000 1206.000000"
 preserveAspectRatio="xMidYMid meet">

<g transform="translate(0.000000,1206.000000) scale(0.100000,-0.100000)"
fill="#000000" stroke="none">
<path d="M7365 12046 c-267 -44 -515 -150 -725 -310 -327 -250 -725 -648
-1250 -1251 -265 -305 -429 -483 -610 -663 -374 -373 -801 -723 -1083 -887
l-48 -28 -107 17 c-59 10 -112 19 -119 21 -11 4 -2 54 142 728 36 170 65 314
65 321 0 9 -81 -20 -222 -79 -659 -275 -728 -302 -736 -291 -5 6 -103 193
-218 416 -114 223 -218 422 -229 442 l-22 38 -213 -444 -213 -444 -101 62
c-56 35 -233 145 -395 245 -162 101 -299 185 -306 187 -7 3 -1 -82 21 -268 18
-150 44 -376 59 -503 14 -126 28 -242 31 -256 6 -33 56 -25 -556 -89 -267 -28
-493 -55 -503 -59 -16 -5 37 -73 317 -406 185 -220 335 -402 334 -406 -2 -4
-144 -141 -317 -305 -261 -248 -311 -299 -295 -306 11 -4 203 -44 428 -88 226
-44 411 -82 412 -83 1 -1 -44 -236 -101 -522 -57 -286 -102 -521 -100 -523 2
-2 225 103 496 232 271 130 495 236 499 236 4 0 103 -215 220 -477 116 -263
215 -481 219 -485 3 -4 101 167 216 380 115 213 217 401 228 419 l18 31 375
-215 c207 -118 378 -212 381 -210 4 4 -53 701 -77 937 -4 47 -7 86 -6 87 3 4
427 68 841 129 99 14 186 28 193 30 7 2 -116 141 -283 320 -162 175 -293 319
-291 321 2 3 60 30 128 62 476 221 949 574 1488 1111 320 318 721 764 990
1100 307 384 668 712 910 829 67 32 83 36 155 36 67 -1 88 -5 130 -27 209
-109 316 -355 332 -760 5 -128 -8 -430 -23 -524 l-4 -31 -203 -6 c-245 -7
-331 -24 -497 -100 -326 -148 -570 -497 -598 -857 -7 -87 -1 -237 12 -296 l7
-31 -165 -81 c-888 -435 -1588 -1121 -2029 -1989 -446 -878 -588 -1852 -412
-2828 307 -1699 1602 -3088 3277 -3514 629 -160 1270 -182 1913 -65 827 149
1595 533 2220 1110 1292 1193 1761 3032 1200 4700 -401 1189 -1289 2155 -2449
2664 l-129 57 -2 179 c-1 195 -14 260 -76 409 -36 87 -129 230 -198 307 -121
133 -329 256 -516 304 -82 21 -132 26 -282 31 l-183 6 0 171 c0 474 -47 930
-116 1142 -83 255 -281 533 -496 694 -99 75 -256 153 -363 180 -103 27 -282
34 -390 16z m329 -282 c263 -67 557 -374 657 -683 65 -202 99 -537 99 -967 l0
-274 -166 0 -167 0 7 93 c37 509 17 749 -84 1030 -76 209 -241 383 -442 465
-84 34 -233 42 -328 18 -172 -44 -385 -185 -681 -452 -134 -121 -290 -290
-450 -489 -367 -455 -890 -1021 -1234 -1335 -315 -288 -614 -514 -900 -680
-28 -16 9 27 125 144 91 91 161 166 156 166 -22 0 -202 33 -214 39 -8 5 12 24
55 56 114 83 341 266 481 389 302 266 561 534 955 985 340 388 503 565 748
807 450 444 656 588 953 669 170 46 300 52 430 19z m-5239 -2247 c96 -187 109
-208 129 -203 11 3 176 70 366 150 190 79 346 140 348 135 3 -7 -28 -158 -147
-716 l-28 -131 66 -13 66 -12 -70 -24 c-126 -43 -308 -92 -405 -108 -146 -25
-140 -23 -140 -49 0 -25 18 -28 288 -52 l72 -7 -66 -74 c-37 -40 -65 -76 -62
-78 5 -5 189 42 318 81 130 39 313 111 437 170 105 50 153 65 153 46 0 -4 -96
-102 -212 -219 l-213 -211 -124 -31 c-108 -27 -217 -44 -339 -53 l-33 -3 95
-84 c53 -46 96 -87 96 -90 0 -3 -73 -21 -163 -40 -89 -19 -166 -38 -172 -44
-6 -6 62 -7 185 -4 208 6 293 19 483 75 l97 29 169 -181 c93 -100 169 -185
170 -191 2 -10 -87 -24 -579 -96 -118 -17 -218 -34 -221 -37 -4 -4 8 -171 27
-372 18 -201 33 -379 34 -397 l0 -32 -287 165 c-158 90 -288 164 -289 164 -1
0 -78 -141 -170 -314 -93 -173 -172 -312 -175 -308 -5 6 -91 200 -274 617 -31
72 -58 131 -59 133 -3 2 -203 -93 -681 -324 -60 -29 -111 -51 -112 -50 -2 1
33 184 78 405 44 222 78 405 76 408 -3 2 -147 32 -321 66 -174 34 -315 65
-313 68 1 4 103 102 227 219 124 117 226 217 228 221 2 5 -116 149 -262 321
-237 281 -262 314 -243 320 12 4 206 26 432 49 226 23 413 45 416 48 3 3 -4
92 -17 196 -12 105 -32 271 -44 370 -11 99 -24 193 -27 209 -4 25 -3 28 13 22
9 -4 147 -88 306 -188 163 -101 293 -177 298 -172 8 8 221 449 297 614 l34 75
68 -130 c38 -71 117 -224 176 -338z m5390 -1686 c82 -37 154 -152 141 -225
-14 -75 -73 -119 -276 -205 -267 -113 -480 -237 -831 -483 -334 -234 -454
-340 -684 -608 -149 -173 -229 -218 -367 -207 -129 11 -218 77 -218 161 0 133
150 423 317 611 200 224 547 490 893 684 214 120 533 245 700 276 114 20 276
19 325 -4z m-2395 -2074 c46 -27 60 -43 90 -101 34 -68 35 -72 34 -185 0 -130
-22 -211 -86 -319 -49 -84 -155 -187 -225 -219 -111 -51 -203 -41 -279 29 -68
63 -89 122 -88 253 0 92 5 123 27 191 58 175 200 333 337 375 14 4 50 8 80 8
46 1 66 -5 110 -32z"/>
</g>
</svg>
