<?xml version="1.0" standalone="no"?>
<!DOCTYPE svg PUBLIC "-//W3C//DTD SVG 20010904//EN"
 "http://www.w3.org/TR/2001/REC-SVG-20010904/DTD/svg10.dtd">
<svg version="1.0" xmlns="http://www.w3.org/2000/svg"
 width="1056.000000pt" height="992.000000pt" viewBox="0 0 1056.000000 992.000000"
 preserveAspectRatio="xMidYMid meet">

<g transform="translate(0.000000,992.000000) scale(0.100000,-0.100000)"
fill="#000000" stroke="none">
<path d="M2870 9322 c-65 -55 -331 -269 -908 -732 -278 -223 -510 -413 -516
-422 -13 -21 2 -67 144 -433 24 -60 71 -184 105 -275 34 -91 83 -221 109 -290
26 -69 63 -165 83 -215 50 -128 76 -199 110 -290 l29 -80 54 -7 c30 -3 103 -6
162 -7 59 -1 109 -5 112 -10 4 -5 -9 -21 -26 -36 -18 -15 -80 -71 -137 -124
-57 -53 -109 -100 -115 -106 -6 -5 -71 -65 -143 -133 -125 -117 -132 -126
-143 -175 -33 -163 -74 -364 -90 -442 -19 -92 -41 -187 -110 -480 -29 -124
-188 -759 -216 -860 -62 -230 -80 -295 -144 -520 -94 -330 -222 -758 -265
-889 -20 -59 -34 -114 -31 -121 3 -9 64 5 228 55 367 111 410 122 420 112 5
-5 28 -60 52 -123 106 -278 348 -694 546 -935 49 -60 220 -279 280 -359 25
-33 50 -66 57 -75 6 -8 30 -39 53 -68 22 -29 45 -50 49 -47 5 2 12 102 16 220
4 118 10 217 14 219 3 2 90 -78 192 -178 317 -308 593 -511 1019 -748 217
-121 300 -162 310 -152 5 5 22 62 39 128 16 65 32 121 35 124 3 3 38 -18 78
-47 152 -107 559 -371 574 -371 2 0 23 -11 45 -26 55 -34 75 -45 292 -163 32
-17 63 -31 69 -31 13 0 249 130 448 248 175 103 338 209 483 314 59 43 112 78
117 78 10 0 25 -43 40 -115 6 -27 15 -67 19 -88 14 -63 21 -64 113 -17 344
177 670 380 876 543 112 89 322 280 447 406 60 61 113 111 117 111 12 0 17
-30 34 -205 9 -96 21 -176 28 -183 10 -10 21 -1 57 45 25 32 110 141 190 243
265 339 349 455 448 624 73 123 190 361 241 486 23 58 48 111 56 119 14 15 21
14 469 -79 166 -35 165 -35 165 -12 0 9 -30 116 -66 237 -156 525 -221 749
-298 1040 -31 116 -60 224 -66 240 -15 47 -213 850 -259 1050 -46 202 -90 409
-127 595 -13 69 -27 132 -29 141 -3 9 -90 93 -193 187 -103 93 -196 178 -207
188 -11 11 -50 45 -87 78 -38 32 -68 65 -68 72 0 11 27 14 133 15 202 2 179
-14 254 179 35 91 86 226 114 300 28 74 69 180 90 235 150 386 312 826 316
855 4 34 2 37 -109 125 -62 50 -262 210 -443 355 -182 146 -416 333 -520 416
-105 83 -238 190 -296 238 -58 47 -111 86 -118 86 -7 0 -44 -21 -84 -47 -40
-25 -128 -83 -197 -128 -221 -144 -424 -274 -737 -474 -40 -25 -134 -86 -209
-134 l-136 -89 6 -46 c4 -26 13 -87 21 -137 35 -214 48 -315 41 -322 -7 -7
-53 3 -181 42 -44 14 -201 59 -350 100 -148 42 -290 83 -315 91 -146 47 -205
64 -227 64 -13 0 -70 -14 -126 -31 -130 -39 -473 -139 -512 -149 -16 -5 -117
-33 -223 -64 -106 -31 -200 -56 -208 -56 -17 0 -18 41 -4 126 57 321 63 361
57 377 -3 8 -110 81 -239 162 -378 240 -556 354 -678 434 -289 189 -435 281
-445 281 -5 0 -30 -17 -55 -38z m158 -925 c162 -269 286 -473 312 -512 40 -60
90 -152 90 -167 0 -8 -42 -52 -92 -99 -257 -235 -398 -359 -410 -359 -7 0 -58
41 -113 91 -55 51 -154 139 -220 198 -66 58 -135 119 -153 136 -19 16 -40 34
-48 38 -24 14 -15 35 19 41 17 3 102 12 187 21 245 24 258 26 268 38 10 12 12
36 37 447 16 254 19 275 34 266 5 -4 45 -66 89 -139z m4662 -38 c27 -460 32
-535 39 -541 4 -5 101 -17 216 -28 246 -24 275 -28 275 -40 0 -7 -303 -284
-497 -454 -55 -48 -42 -55 -234 118 -291 262 -319 289 -319 307 0 10 33 71 74
136 107 172 341 554 356 583 35 67 62 102 71 93 6 -6 14 -84 19 -174z m-3509
-2179 c215 -22 345 -84 394 -187 26 -54 37 -181 30 -333 -10 -183 -29 -232
-110 -272 -36 -17 -53 -19 -175 -13 -223 11 -738 -20 -1005 -60 -233 -36 -295
-40 -323 -24 -64 36 -86 149 -63 332 28 217 82 308 225 376 309 147 692 214
1027 181z m2599 -5 c184 -19 240 -30 378 -69 215 -62 373 -140 423 -209 29
-38 36 -53 59 -112 21 -52 34 -162 35 -285 0 -116 -3 -139 -19 -167 -24 -38
-54 -53 -109 -53 -41 0 -59 3 -267 35 -264 40 -772 71 -996 61 -140 -7 -175 0
-221 44 -36 33 -50 69 -62 166 -30 243 2 427 86 491 61 46 199 89 328 102 125
13 219 12 365 -4z m-2769 -1029 c70 -21 102 -40 141 -84 47 -52 58 -73 75
-146 27 -113 -15 -240 -101 -308 -68 -54 -107 -68 -190 -68 -94 0 -154 21
-215 76 -71 64 -101 132 -101 228 0 91 21 146 81 211 85 92 198 125 310 91z
m2737 2 c155 -38 263 -205 231 -357 -15 -76 -39 -119 -92 -168 -68 -63 -101
-76 -198 -81 -77 -4 -91 -2 -142 22 -73 35 -149 117 -168 183 -71 243 129 461
369 401z m-1299 -513 c112 -97 389 -368 482 -470 278 -305 487 -670 544 -950
51 -255 45 -422 -26 -637 -136 -416 -549 -721 -1068 -788 -165 -22 -415 33
-624 136 -343 170 -565 438 -641 774 -32 143 -29 362 8 520 56 243 175 474
403 777 98 131 342 383 577 598 29 26 144 123 170 143 34 26 18 35 175 -103z"/>
<path d="M4695 3630 c-8 -50 2 -160 21 -225 64 -212 233 -363 453 -405 30 -6
56 -12 59 -15 11 -11 -12 -58 -61 -126 -58 -82 -120 -130 -220 -169 -58 -23
-74 -25 -224 -24 -135 1 -163 -1 -163 -13 0 -38 107 -101 234 -138 44 -13 84
-16 160 -13 124 5 187 30 283 114 l63 56 68 -58 c95 -81 155 -106 272 -111
116 -6 191 11 303 69 84 44 108 71 85 94 -12 12 -24 13 -67 3 -28 -6 -96 -9
-149 -7 -83 3 -108 9 -175 37 -108 46 -153 83 -214 174 -64 96 -67 114 -15
122 163 28 283 96 376 215 83 105 130 251 124 385 l-3 70 -602 3 -601 2 -7
-40z"/>
</g>
</svg>
