<?xml version="1.0" standalone="no"?>
<!DOCTYPE svg PUBLIC "-//W3C//DTD SVG 20010904//EN"
 "http://www.w3.org/TR/2001/REC-SVG-20010904/DTD/svg10.dtd">
<svg version="1.0" xmlns="http://www.w3.org/2000/svg"
 width="1920.000000pt" height="1918.000000pt" viewBox="0 0 1920.000000 1918.000000"
 preserveAspectRatio="xMidYMid meet">

<g transform="translate(0.000000,1918.000000) scale(0.100000,-0.100000)"
fill="#000000" stroke="none">
<path d="M8083 19161 c-177 -51 -307 -198 -333 -377 -6 -42 -10 -427 -10 -974
l0 -905 -128 -34 c-281 -74 -691 -221 -1016 -363 -189 -83 -525 -254 -720
-366 -87 -51 -161 -92 -165 -92 -3 0 -310 305 -681 678 -714 718 -715 719
-838 752 -115 30 -282 5 -379 -59 -27 -16 -496 -479 -1045 -1028 -802 -803
-1001 -1008 -1022 -1050 -75 -152 -73 -312 6 -452 24 -42 200 -223 702 -723
651 -647 671 -668 657 -690 -52 -83 -197 -353 -276 -513 -228 -465 -418 -977
-545 -1472 l-11 -42 -947 -3 -947 -3 -64 -24 c-125 -46 -231 -152 -283 -280
l-23 -56 0 -1495 0 -1495 23 -56 c52 -128 158 -234 283 -280 l64 -24 956 -3
956 -3 33 -122 c166 -609 468 -1318 771 -1813 l41 -67 -99 -101 c-55 -56 -360
-366 -679 -691 -412 -420 -589 -606 -611 -646 -80 -139 -83 -300 -7 -452 21
-42 220 -247 1022 -1050 549 -549 1018 -1012 1045 -1028 97 -64 264 -89 379
-59 123 33 124 34 839 752 372 373 679 678 682 678 3 0 77 -41 164 -91 506
-291 1106 -540 1690 -704 l172 -48 3 -956 3 -956 24 -64 c49 -132 170 -248
299 -288 53 -17 155 -18 1542 -18 l1485 0 56 23 c128 52 234 158 280 283 l24
64 3 945 c1 520 6 948 10 952 4 4 73 26 152 48 593 167 1145 398 1685 706 93
53 175 99 182 101 8 3 292 -275 696 -680 629 -632 687 -688 747 -716 140 -66
278 -65 414 3 67 33 133 97 1082 1048 997 1000 1011 1014 1044 1087 59 132 53
280 -18 416 -19 37 -201 226 -709 735 l-683 686 86 149 c296 517 555 1140 714
1717 l43 157 956 3 956 3 64 24 c125 46 231 152 283 280 l23 56 0 1495 0 1495
-23 56 c-52 128 -158 234 -283 280 l-64 24 -950 3 -950 3 -39 142 c-121 443
-312 931 -536 1372 -82 161 -127 242 -269 487 l-16 28 671 667 c370 368 686
690 704 716 70 105 96 249 66 364 -35 138 3 97 -1064 1166 -549 549 -1018
1012 -1045 1028 -97 64 -264 89 -379 59 -117 -32 -128 -42 -842 -752 -375
-373 -682 -677 -683 -678 -1 0 -73 41 -160 91 -518 296 -1125 549 -1705 709
l-157 44 -3 950 -3 951 -23 67 c-43 127 -149 237 -281 290 l-56 23 -1475 2
c-1388 2 -1479 1 -1537 -16z m2447 -1810 c0 -865 1 -901 20 -962 37 -122 124
-225 233 -279 40 -19 134 -46 265 -76 758 -170 1466 -465 2105 -876 192 -123
213 -135 282 -152 111 -30 233 -15 339 41 38 20 219 194 706 680 l655 653 628
-628 627 -627 -636 -635 c-398 -397 -651 -657 -675 -694 -74 -112 -97 -245
-63 -371 17 -69 29 -90 154 -285 433 -674 743 -1418 905 -2175 14 -66 39 -148
55 -182 52 -112 154 -201 277 -242 61 -21 78 -21 958 -21 l895 0 0 -930 0
-930 -899 0 c-865 0 -901 -1 -962 -20 -122 -37 -225 -124 -279 -233 -19 -39
-45 -128 -70 -239 -178 -799 -471 -1497 -913 -2182 -97 -150 -125 -215 -134
-311 -7 -80 17 -192 58 -265 23 -41 199 -223 680 -705 l649 -650 -625 -625
-625 -625 -652 651 c-402 401 -670 661 -698 677 -104 59 -253 74 -368 38 -39
-12 -129 -62 -249 -139 -698 -445 -1389 -735 -2164 -907 -103 -23 -183 -47
-221 -66 -85 -43 -156 -118 -204 -214 l-39 -79 -6 -250 c-4 -138 -7 -551 -8
-918 l-1 -668 -930 0 -930 0 0 899 c0 872 -1 901 -20 964 -39 125 -135 235
-252 286 -25 12 -133 41 -241 65 -783 179 -1464 464 -2135 894 -90 57 -187
113 -215 124 -67 26 -177 34 -249 19 -140 -30 -127 -18 -838 -727 l-655 -654
-629 629 -630 630 450 456 c734 746 861 879 889 935 60 119 70 254 25 373 -12
32 -58 113 -102 180 -436 660 -737 1367 -918 2157 -24 102 -54 210 -69 240
-35 74 -118 160 -189 198 -120 64 -87 62 -1064 62 l-888 0 0 930 0 929 913 3
912 3 79 38 c92 44 180 127 220 209 15 30 45 139 71 253 186 828 481 1533 930
2225 93 144 109 190 109 315 -1 119 -21 183 -89 272 -23 32 -320 335 -659 673
l-616 615 627 627 628 628 655 -654 c711 -709 698 -697 838 -727 72 -15 182
-7 248 19 28 10 136 73 240 139 237 151 342 212 569 329 503 259 1026 449
1569 570 89 19 189 48 223 64 112 51 201 154 242 277 21 61 21 78 21 958 l0
895 930 0 930 0 0 -899z"/>
<path d="M9350 13309 c-924 -67 -1770 -459 -2411 -1116 -605 -621 -960 -1381
-1051 -2253 -15 -148 -15 -552 0 -700 78 -743 346 -1402 806 -1980 128 -160
416 -448 576 -576 531 -423 1136 -686 1803 -783 658 -96 1365 -5 1971 254 458
196 829 447 1187 804 300 301 518 601 699 961 422 842 511 1810 249 2707 -137
470 -363 903 -673 1293 -128 160 -416 448 -576 576 -575 458 -1248 733 -1970
804 -153 15 -466 20 -610 9z m604 -944 c1084 -143 1977 -887 2310 -1925 91
-283 130 -536 130 -850 0 -235 -10 -340 -54 -560 -84 -423 -283 -845 -566
-1200 -86 -108 -304 -325 -414 -413 -421 -337 -907 -541 -1445 -608 -129 -16
-501 -16 -630 0 -537 67 -1020 270 -1445 607 -108 86 -325 303 -413 414 -337
422 -541 907 -608 1445 -16 129 -16 501 0 630 105 840 546 1555 1247 2023 393
262 833 409 1364 456 90 8 408 -4 524 -19z"/>
</g>
</svg>
